# File created by Blade
# Date/Time:  Tue Jan 27 19:54:32 2015
#---------------------------------------------------------
:version 1.10
:name HOM
:units
  mass 1.0
  length 1.000000
  angle deg
:documentation
     Acclaim Skeleton File
:root
   axis xyz
   order TX TY TZ RX RY RZ
   position 0.000000 0.000000 0.000000
   orientation 0 0 0
:bonedata
   begin
      id 1
      name Spine_dum
      direction 0.000000 1.000000 0.000000
      length 6.116652
      axis 0.0 0.0 0.0 xyz
   end
   begin
      id 2
      name LeftUpLeg_dum
      direction 1.000000 0.000000 0.000000
      length 4.711765
      axis 0.0 0.0 0.0 xyz
   end
   begin
      id 3
      name RightUpLeg_dum
      direction -1.000000 0.000000 0.000000
      length 4.711765
      axis 0.0 0.0 0.0 xyz
   end
   begin
      id 4
      name Spine
      direction 0.000000 1.000000 0.000000
      length 0.000000
      axis 0.0 0.0 0.0 xyz
      dof rx ry rz
   end
   begin
      id 5
      name Spine_dum1
      direction 0.000000 1.000000 0.000000
      length 15.225563
      axis 0.0 0.0 0.0 xyz
   end
   begin
      id 6
      name Spine_dum2
      direction 0.000000 1.000000 0.000000
      length 8.977654
      axis 0.0 0.0 0.0 xyz
   end
   begin
      id 7
      name Spine_dum3
      direction 0.000000 1.000000 0.000000
      length 8.977654
      axis 0.0 0.0 0.0 xyz
   end
   begin
      id 8
      name Head
      direction 0.000000 1.000000 0.000000
      length 4.527550
      axis 0.0 0.0 0.0 xyz
      dof rx ry rz
   end
   begin
      id 9
      name LeftShoulder
      direction 1.000000 0.000000 0.000000
      length 7.110130
      axis 0.0 0.0 -90.0 xyz
      dof rx ry rz
   end
   begin
      id 10
      name LeftArm
      direction 1.000000 0.000000 0.000000
      length 10.398341
      axis 0.0 0.0 -90.0 xyz
      dof rx ry rz
   end
   begin
      id 11
      name LeftForeArm
      direction 1.000000 0.000000 0.000000
      length 8.888997
      axis 0.0 0.0 -90.0 xyz
      dof ry rz rx
   end
   begin
      id 12
      name LeftHand
      direction 0.000000 0.000000 0.000000
      length 0.000000
      axis 0.0 0.0 -90.0 xyz
      dof rx ry rz
   end
   begin
      id 13
      name LeftHand_dum1
      direction 0.000000 0.000000 0.000000
      length 0.000000
      axis 0.0 0.0 -90.0 xyz
   end
   begin
      id 14
      name LeftHand_dum2
      direction 1.000000 0.000000 0.000000
      length 3.937000
      axis 0.0 0.0 -90.0 xyz
   end
   begin
      id 15
      name LeftHandThumb1
      direction 0.000000 0.000000 1.000000
      length 3.937000
      axis 0.0 0.0 -90.0 xyz
      dof rx rz ry
   end
   begin
      id 16
      name RightShoulder
      direction -1.000000 0.000000 0.000000
      length 7.110130
      axis 0.0 0.0 90.0 xyz
      dof rx ry rz
   end
   begin
      id 17
      name RightArm
      direction -1.000000 0.000000 0.000000
      length 10.398341
      axis 0.0 0.0 90.0 xyz
      dof rx ry rz
   end
   begin
      id 18
      name RightForeArm
      direction -1.000000 0.000000 0.000000
      length 8.888997
      axis 0.0 0.0 90.0 xyz
      dof ry rz rx
   end
   begin
      id 19
      name RightHand
      direction 0.000000 0.000000 0.000000
      length 0.000000
      axis 0.0 0.0 90.0 xyz
      dof rx ry rz
   end
   begin
      id 20
      name RightHand_dum1
      direction 0.000000 0.000000 0.000000
      length 0.000000
      axis 0.0 0.0 90.0 xyz
   end
   begin
      id 21
      name RightHand_dum2
      direction -1.000000 0.000000 0.000000
      length 3.937000
      axis 0.0 0.0 90.0 xyz
   end
   begin
      id 22
      name RightHandThumb1
      direction 0.000000 0.000000 1.000000
      length 3.937000
      axis 0.0 0.0 90.0 xyz
      dof rx rz ry
   end
   begin
      id 23
      name LeftUpLeg
      direction 0.000000 -1.000000 0.000000
      length 15.510451
      axis 0.0 0.0 0.0 xyz
      dof rx ry rz
   end
   begin
      id 24
      name LeftLeg
      direction 0.000000 -1.000000 0.000000
      length 14.858061
      axis 0.0 0.0 0.0 xyz
      dof rx ry rz
   end
   begin
      id 25
      name LeftFoot
      direction 0.000000 -0.258819 0.965926
      length 5.128852
      axis 15.0 0.0 0.0 xyz
      dof rx ry rz
   end
   begin
      id 26
      name LeftToeBase
      direction 0.000000 0.000000 1.000000
      length 2.952750
      axis 0.0 0.0 0.0 xyz
      dof rx ry rz
   end
   begin
      id 27
      name RightUpLeg
      direction 0.000000 -1.000000 0.000000
      length 15.510451
      axis 0.0 0.0 0.0 xyz
      dof rx ry rz
   end
   begin
      id 28
      name RightLeg
      direction 0.000000 -1.000000 0.000000
      length 14.858061
      axis 0.0 0.0 0.0 xyz
      dof rx ry rz
   end
   begin
      id 29
      name RightFoot
      direction 0.000000 -0.258819 0.965926
      length 5.128852
      axis 15.0 0.0 0.0 xyz
      dof rx ry rz
   end
   begin
      id 30
      name RightToeBase
      direction 0.000000 0.000000 1.000000
      length 2.952750
      axis 0.0 0.0 0.0 xyz
      dof rx ry rz
   end
:hierarchy
   begin
      root Spine_dum LeftUpLeg_dum RightUpLeg_dum
      Spine_dum Spine
      LeftUpLeg_dum LeftUpLeg
      RightUpLeg_dum RightUpLeg
      Spine Spine_dum1 Spine_dum2 Spine_dum3
      Spine_dum1 Head
      Spine_dum2 LeftShoulder
      Spine_dum3 RightShoulder
      LeftShoulder LeftArm
      LeftArm LeftForeArm
      LeftForeArm LeftHand
      LeftHand LeftHand_dum1 LeftHand_dum2
      LeftHand_dum1 LeftHandThumb1
      RightShoulder RightArm
      RightArm RightForeArm
      RightForeArm RightHand
      RightHand RightHand_dum1 RightHand_dum2
      RightHand_dum1 RightHandThumb1
      LeftUpLeg LeftLeg
      LeftLeg LeftFoot
      LeftFoot LeftToeBase
      RightUpLeg RightLeg
      RightLeg RightFoot
      RightFoot RightToeBase
   end

# File created by Blade
# Date/Time:  Tue Jan 27 19:54:25 2015
# Frame Rate: 120.000 fps
#------------------------------------------------------
:FULLY-SPECIFIED
:DEGREES
263
root 5.626115 33.253064 0.304935 -17.808800 19.785225 -13.393335
Spine 19.388337 -7.117480 10.532429
Head -3.974575 -9.247668 5.895980
LeftShoulder -13.537096 -4.126468 28.162410
LeftArm -8.914258 22.337498 -95.377307
LeftForeArm 4.691769 -0.000000 83.007495
LeftHand 22.000660 -0.000000 54.556179
LeftHandThumb1 -26.253704 0.000000 33.147579
RightShoulder -23.163289 -17.673373 -17.620203
RightArm 5.543839 -24.763462 94.045142
RightForeArm -14.805289 -0.000000 27.419205
RightHand 15.034031 -0.000000 8.592710
RightHandThumb1 -24.326973 -0.000000 -32.862282
LeftUpLeg 16.096939 3.893093 8.722950
LeftLeg 3.592840 -0.000000 -0.000000
LeftFoot -13.691130 0.054134 -16.910124
LeftToeBase 21.115572 -0.000000 -0.000000
RightUpLeg -78.233892 17.850025 31.484132
RightLeg 119.263577 -0.000000 -0.000000
RightFoot 5.023724 -18.484734 32.178421
RightToeBase 11.906657 -0.000000 -0.000000
264
root 5.615939 33.258065 0.293606 -17.844873 19.737186 -13.465782
Spine 19.478411 -7.082316 10.629845
Head -4.072106 -9.240947 5.925503
LeftShoulder -13.569628 -4.228294 28.156473
LeftArm -8.856302 22.367854 -95.355049
LeftForeArm 4.705119 -0.000000 82.920660
LeftHand 21.973028 -0.000000 54.478338
LeftHandThumb1 -26.253704 0.000000 33.147579
RightShoulder -23.153122 -17.605236 -17.553059
RightArm 5.642052 -24.882015 93.996785
RightForeArm -14.701520 -0.000000 27.565717
RightHand 14.953279 -0.000000 8.645280
RightHandThumb1 -24.326973 -0.000000 -32.862282
LeftUpLeg 16.064830 3.937216 8.816654
LeftLeg 3.652112 -0.000000 -0.000000
LeftFoot -13.715886 0.055402 -16.892272
LeftToeBase 21.031753 -0.000000 -0.000000
RightUpLeg -78.546422 17.924993 31.415023
RightLeg 119.226082 -0.000000 -0.000000
RightFoot 5.017403 -18.729567 32.248178
RightToeBase 11.952626 -0.000000 -0.000000
265
root 5.606065 33.262803 0.282349 -17.870794 19.701281 -13.531135
Spine 19.552165 -7.030037 10.718387
Head -4.171689 -9.272226 5.987382
LeftShoulder -13.584946 -4.348669 28.153639
LeftArm -8.816443 22.378041 -95.346459
LeftForeArm 4.685085 -0.000000 82.833880
LeftHand 22.037963 -0.000000 54.403342
LeftHandThumb1 -26.253704 0.000000 33.147579
RightShoulder -23.114718 -17.472719 -17.529595
RightArm 5.650913 -24.900084 94.034047
RightForeArm -14.566793 -0.000000 27.658737
RightHand 15.008376 -0.000000 8.823500
RightHandThumb1 -24.326973 -0.000000 -32.862282
LeftUpLeg 16.030763 3.959181 8.895817
LeftLeg 3.694251 -0.000000 -0.000000
LeftFoot -13.747344 0.052452 -16.931605
LeftToeBase 21.166533 -0.000000 -0.000000
RightUpLeg -78.880952 17.986962 31.323523
RightLeg 119.198455 -0.000000 -0.000000
RightFoot 5.062926 -18.920256 32.285262
RightToeBase 12.119225 -0.000000 -0.000000
266
root 5.592638 33.267767 0.270681 -17.877557 19.635759 -13.595850
Spine 19.613139 -6.915752 10.813617
Head -4.282818 -9.329672 6.079723
LeftShoulder -13.599712 -4.485680 28.163490
LeftArm -8.774190 22.386011 -95.342104
LeftForeArm 4.697295 -0.000000 82.729770
LeftHand 22.057605 0.000000 54.419046
LeftHandThumb1 -26.253704 0.000000 33.147579
RightShoulder -23.118761 -17.378360 -17.472256
RightArm 5.697324 -24.767343 94.059332
RightForeArm -14.317298 0.000000 27.779281
RightHand 14.992061 -0.000000 9.544149
RightHandThumb1 -24.326973 -0.000000 -32.862282
LeftUpLeg 15.992983 4.058665 9.005620
LeftLeg 3.717697 -0.000000 -0.000000
LeftFoot -13.738998 0.005340 -16.917958
LeftToeBase 21.088459 -0.000000 -0.000000
RightUpLeg -79.196707 18.075867 31.253382
RightLeg 119.143628 -0.000000 -0.000000
RightFoot 5.059634 -19.108662 32.436376
RightToeBase 12.130622 -0.000000 -0.000000
